<svg width="213" height="40" viewBox="0 0 213 40" fill="none" xmlns="http://www.w3.org/2000/svg">
<path d="M3.78 36.108C3.404 36.108 3.036 36.076 2.676 36.012C2.316 35.948 1.98 35.856 1.668 35.736C1.364 35.616 1.088 35.464 0.84 35.28C0.744 35.208 0.676 35.128 0.636 35.04C0.604 34.944 0.596 34.852 0.612 34.764C0.636 34.668 0.676 34.588 0.732 34.524C0.796 34.46 0.872 34.424 0.96 34.416C1.048 34.408 1.144 34.436 1.248 34.5C1.608 34.756 1.992 34.944 2.4 35.064C2.808 35.176 3.268 35.232 3.78 35.232C4.5 35.232 5.032 35.1 5.376 34.836C5.728 34.564 5.904 34.208 5.904 33.768C5.904 33.408 5.776 33.128 5.52 32.928C5.272 32.72 4.852 32.556 4.26 32.436L3.012 32.184C2.26 32.024 1.696 31.764 1.32 31.404C0.952 31.036 0.768 30.548 0.768 29.94C0.768 29.564 0.844 29.224 0.996 28.92C1.148 28.608 1.36 28.344 1.632 28.128C1.904 27.904 2.228 27.732 2.604 27.612C2.98 27.492 3.396 27.432 3.852 27.432C4.356 27.432 4.824 27.504 5.256 27.648C5.696 27.784 6.092 27.992 6.444 28.272C6.532 28.344 6.592 28.428 6.624 28.524C6.656 28.612 6.66 28.7 6.636 28.788C6.612 28.868 6.568 28.936 6.504 28.992C6.448 29.048 6.372 29.08 6.276 29.088C6.188 29.096 6.088 29.064 5.976 28.992C5.656 28.752 5.324 28.58 4.98 28.476C4.636 28.364 4.256 28.308 3.84 28.308C3.416 28.308 3.048 28.372 2.736 28.5C2.432 28.628 2.192 28.816 2.016 29.064C1.848 29.304 1.764 29.584 1.764 29.904C1.764 30.288 1.88 30.592 2.112 30.816C2.352 31.04 2.74 31.204 3.276 31.308L4.524 31.572C5.332 31.74 5.928 31.996 6.312 32.34C6.704 32.676 6.9 33.136 6.9 33.72C6.9 34.072 6.828 34.396 6.684 34.692C6.54 34.988 6.332 35.244 6.06 35.46C5.788 35.668 5.46 35.828 5.076 35.94C4.692 36.052 4.26 36.108 3.78 36.108ZM10.9228 36.108C10.3068 36.108 9.77481 35.988 9.32681 35.748C8.88681 35.5 8.54281 35.152 8.29481 34.704C8.05481 34.256 7.93481 33.72 7.93481 33.096C7.93481 32.488 8.05481 31.96 8.29481 31.512C8.53481 31.056 8.86281 30.7 9.27881 30.444C9.70281 30.188 10.1908 30.06 10.7428 30.06C11.1348 30.06 11.4868 30.128 11.7988 30.264C12.1108 30.392 12.3748 30.58 12.5908 30.828C12.8148 31.076 12.9828 31.376 13.0948 31.728C13.2148 32.08 13.2748 32.476 13.2748 32.916C13.2748 33.044 13.2388 33.14 13.1668 33.204C13.0948 33.26 12.9908 33.288 12.8548 33.288H8.67881V32.652H12.6268L12.4348 32.808C12.4348 32.376 12.3708 32.012 12.2428 31.716C12.1148 31.412 11.9268 31.18 11.6788 31.02C11.4388 30.86 11.1348 30.78 10.7668 30.78C10.3588 30.78 10.0108 30.876 9.72281 31.068C9.44281 31.252 9.23081 31.512 9.08681 31.848C8.94281 32.176 8.87081 32.56 8.87081 33V33.072C8.87081 33.808 9.04681 34.368 9.39881 34.752C9.75881 35.136 10.2668 35.328 10.9228 35.328C11.1948 35.328 11.4628 35.292 11.7268 35.22C11.9988 35.148 12.2628 35.028 12.5188 34.86C12.6308 34.788 12.7308 34.756 12.8188 34.764C12.9148 34.764 12.9908 34.792 13.0468 34.848C13.1028 34.896 13.1388 34.96 13.1548 35.04C13.1788 35.112 13.1708 35.192 13.1308 35.28C13.0988 35.368 13.0308 35.444 12.9268 35.508C12.6628 35.7 12.3508 35.848 11.9908 35.952C11.6308 36.056 11.2748 36.108 10.9228 36.108ZM16.4575 36.108C15.8815 36.108 15.4415 35.932 15.1375 35.58C14.8335 35.228 14.6815 34.724 14.6815 34.068V27.948C14.6815 27.788 14.7215 27.668 14.8015 27.588C14.8815 27.5 15.0015 27.456 15.1615 27.456C15.3135 27.456 15.4335 27.5 15.5215 27.588C15.6095 27.668 15.6535 27.788 15.6535 27.948V33.996C15.6535 34.428 15.7375 34.752 15.9055 34.968C16.0815 35.176 16.3375 35.28 16.6735 35.28C16.7455 35.28 16.8095 35.276 16.8655 35.268C16.9215 35.26 16.9775 35.256 17.0335 35.256C17.1215 35.248 17.1815 35.268 17.2135 35.316C17.2535 35.364 17.2735 35.46 17.2735 35.604C17.2735 35.748 17.2415 35.856 17.1775 35.928C17.1135 36 17.0095 36.048 16.8655 36.072C16.8015 36.08 16.7335 36.088 16.6615 36.096C16.5895 36.104 16.5215 36.108 16.4575 36.108ZM20.8017 36.108C20.1857 36.108 19.6537 35.988 19.2057 35.748C18.7657 35.5 18.4217 35.152 18.1737 34.704C17.9337 34.256 17.8137 33.72 17.8137 33.096C17.8137 32.488 17.9337 31.96 18.1737 31.512C18.4137 31.056 18.7417 30.7 19.1577 30.444C19.5817 30.188 20.0697 30.06 20.6217 30.06C21.0137 30.06 21.3657 30.128 21.6777 30.264C21.9897 30.392 22.2537 30.58 22.4697 30.828C22.6937 31.076 22.8617 31.376 22.9737 31.728C23.0937 32.08 23.1537 32.476 23.1537 32.916C23.1537 33.044 23.1177 33.14 23.0457 33.204C22.9737 33.26 22.8697 33.288 22.7337 33.288H18.5577V32.652H22.5057L22.3137 32.808C22.3137 32.376 22.2497 32.012 22.1217 31.716C21.9937 31.412 21.8057 31.18 21.5577 31.02C21.3177 30.86 21.0137 30.78 20.6457 30.78C20.2377 30.78 19.8897 30.876 19.6017 31.068C19.3217 31.252 19.1097 31.512 18.9657 31.848C18.8217 32.176 18.7497 32.56 18.7497 33V33.072C18.7497 33.808 18.9257 34.368 19.2777 34.752C19.6377 35.136 20.1457 35.328 20.8017 35.328C21.0737 35.328 21.3417 35.292 21.6057 35.22C21.8777 35.148 22.1417 35.028 22.3977 34.86C22.5097 34.788 22.6097 34.756 22.6977 34.764C22.7937 34.764 22.8697 34.792 22.9257 34.848C22.9817 34.896 23.0177 34.96 23.0337 35.04C23.0577 35.112 23.0497 35.192 23.0097 35.28C22.9777 35.368 22.9097 35.444 22.8057 35.508C22.5417 35.7 22.2297 35.848 21.8697 35.952C21.5097 36.056 21.1537 36.108 20.8017 36.108ZM27.0324 36.108C26.4484 36.108 25.9444 35.98 25.5204 35.724C25.0964 35.468 24.7684 35.112 24.5364 34.656C24.3124 34.192 24.2004 33.656 24.2004 33.048C24.2004 32.584 24.2644 32.168 24.3924 31.8C24.5204 31.432 24.7084 31.12 24.9564 30.864C25.2044 30.6 25.5004 30.4 25.8444 30.264C26.1964 30.128 26.5924 30.06 27.0324 30.06C27.3204 30.06 27.6204 30.104 27.9324 30.192C28.2444 30.28 28.5284 30.432 28.7844 30.648C28.8644 30.704 28.9164 30.772 28.9404 30.852C28.9644 30.932 28.9644 31.012 28.9404 31.092C28.9164 31.164 28.8764 31.228 28.8204 31.284C28.7644 31.332 28.6924 31.36 28.6044 31.368C28.5244 31.376 28.4404 31.348 28.3524 31.284C28.1444 31.124 27.9324 31.012 27.7164 30.948C27.5004 30.884 27.2924 30.852 27.0924 30.852C26.7804 30.852 26.5084 30.904 26.2764 31.008C26.0444 31.104 25.8484 31.244 25.6884 31.428C25.5284 31.612 25.4044 31.84 25.3164 32.112C25.2364 32.384 25.1964 32.7 25.1964 33.06C25.1964 33.756 25.3604 34.308 25.6884 34.716C26.0164 35.116 26.4844 35.316 27.0924 35.316C27.2924 35.316 27.4964 35.284 27.7044 35.22C27.9204 35.156 28.1364 35.044 28.3524 34.884C28.4404 34.82 28.5244 34.792 28.6044 34.8C28.6844 34.808 28.7524 34.84 28.8084 34.896C28.8644 34.944 28.9004 35.008 28.9164 35.088C28.9404 35.168 28.9404 35.248 28.9164 35.328C28.8924 35.4 28.8404 35.464 28.7604 35.52C28.5044 35.728 28.2244 35.88 27.9204 35.976C27.6164 36.064 27.3204 36.108 27.0324 36.108ZM32.4551 36.108C31.9991 36.108 31.6151 36.028 31.3031 35.868C30.9991 35.7 30.7711 35.46 30.6191 35.148C30.4671 34.828 30.3911 34.44 30.3911 33.984V30.924H29.5871C29.4511 30.924 29.3471 30.892 29.2751 30.828C29.2031 30.756 29.1671 30.66 29.1671 30.54C29.1671 30.42 29.2031 30.328 29.2751 30.264C29.3471 30.2 29.4511 30.168 29.5871 30.168H30.3911V28.788C30.3911 28.628 30.4351 28.508 30.5231 28.428C30.6111 28.34 30.7311 28.296 30.8831 28.296C31.0351 28.296 31.1511 28.34 31.2311 28.428C31.3191 28.508 31.3631 28.628 31.3631 28.788V30.168H32.8751C33.0111 30.168 33.1151 30.2 33.1871 30.264C33.2591 30.328 33.2951 30.42 33.2951 30.54C33.2951 30.66 33.2591 30.756 33.1871 30.828C33.1151 30.892 33.0111 30.924 32.8751 30.924H31.3631V33.888C31.3631 34.344 31.4591 34.692 31.6511 34.932C31.8431 35.164 32.1551 35.28 32.5871 35.28C32.7391 35.28 32.8671 35.264 32.9711 35.232C33.0831 35.2 33.1751 35.184 33.2471 35.184C33.3191 35.176 33.3791 35.2 33.4271 35.256C33.4751 35.312 33.4991 35.408 33.4991 35.544C33.4991 35.64 33.4791 35.728 33.4391 35.808C33.4071 35.888 33.3471 35.944 33.2591 35.976C33.1631 36.008 33.0351 36.036 32.8751 36.06C32.7231 36.092 32.5831 36.108 32.4551 36.108ZM38.0282 36.084C37.8682 36.084 37.7442 36.04 37.6562 35.952C37.5762 35.856 37.5362 35.728 37.5362 35.568V28.044C37.5362 27.876 37.5802 27.752 37.6682 27.672C37.7562 27.584 37.8802 27.54 38.0402 27.54H40.8842C41.7882 27.54 42.4842 27.764 42.9722 28.212C43.4602 28.652 43.7042 29.276 43.7042 30.084C43.7042 30.884 43.4602 31.508 42.9722 31.956C42.4842 32.404 41.7882 32.628 40.8842 32.628H38.5202V35.568C38.5202 35.728 38.4802 35.856 38.4002 35.952C38.3202 36.04 38.1962 36.084 38.0282 36.084ZM38.5202 31.8H40.7642C41.4122 31.8 41.9002 31.656 42.2282 31.368C42.5642 31.072 42.7322 30.644 42.7322 30.084C42.7322 29.516 42.5642 29.088 42.2282 28.8C41.9002 28.504 41.4122 28.356 40.7642 28.356H38.5202V31.8ZM46.7739 36.108C46.1979 36.108 45.7579 35.932 45.4539 35.58C45.1499 35.228 44.9979 34.724 44.9979 34.068V27.948C44.9979 27.788 45.0379 27.668 45.1179 27.588C45.1979 27.5 45.3179 27.456 45.4779 27.456C45.6299 27.456 45.7499 27.5 45.8379 27.588C45.9259 27.668 45.9699 27.788 45.9699 27.948V33.996C45.9699 34.428 46.0539 34.752 46.2219 34.968C46.3979 35.176 46.6539 35.28 46.9899 35.28C47.0619 35.28 47.1259 35.276 47.1819 35.268C47.2379 35.26 47.2939 35.256 47.3499 35.256C47.4379 35.248 47.4979 35.268 47.5299 35.316C47.5699 35.364 47.5899 35.46 47.5899 35.604C47.5899 35.748 47.5579 35.856 47.4939 35.928C47.4299 36 47.3259 36.048 47.1819 36.072C47.1179 36.08 47.0499 36.088 46.9779 36.096C46.9059 36.104 46.8379 36.108 46.7739 36.108ZM50.3847 36.108C49.9847 36.108 49.6247 36.032 49.3047 35.88C48.9927 35.72 48.7447 35.504 48.5607 35.232C48.3767 34.96 48.2847 34.656 48.2847 34.32C48.2847 33.888 48.3927 33.548 48.6087 33.3C48.8327 33.052 49.1967 32.876 49.7007 32.772C50.2127 32.668 50.9087 32.616 51.7887 32.616H52.3287V33.252H51.8007C51.1527 33.252 50.6407 33.284 50.2647 33.348C49.8967 33.404 49.6367 33.504 49.4847 33.648C49.3407 33.792 49.2687 33.996 49.2687 34.26C49.2687 34.588 49.3807 34.856 49.6047 35.064C49.8367 35.272 50.1487 35.376 50.5407 35.376C50.8607 35.376 51.1407 35.3 51.3807 35.148C51.6287 34.996 51.8207 34.788 51.9567 34.524C52.1007 34.26 52.1727 33.956 52.1727 33.612V32.244C52.1727 31.748 52.0727 31.392 51.8727 31.176C51.6727 30.952 51.3447 30.84 50.8887 30.84C50.6087 30.84 50.3287 30.876 50.0487 30.948C49.7687 31.02 49.4727 31.136 49.1607 31.296C49.0487 31.352 48.9527 31.372 48.8727 31.356C48.7927 31.332 48.7287 31.288 48.6807 31.224C48.6327 31.16 48.6047 31.088 48.5967 31.008C48.5887 30.92 48.6047 30.836 48.6447 30.756C48.6927 30.676 48.7647 30.612 48.8607 30.564C49.2127 30.388 49.5607 30.26 49.9047 30.18C50.2487 30.1 50.5767 30.06 50.8887 30.06C51.3927 30.06 51.8087 30.144 52.1367 30.312C52.4647 30.472 52.7087 30.72 52.8687 31.056C53.0287 31.384 53.1087 31.808 53.1087 32.328V35.58C53.1087 35.74 53.0687 35.864 52.9887 35.952C52.9167 36.04 52.8087 36.084 52.6647 36.084C52.5127 36.084 52.3967 36.04 52.3167 35.952C52.2367 35.864 52.1967 35.74 52.1967 35.58V34.644H52.3047C52.2407 34.948 52.1167 35.208 51.9327 35.424C51.7567 35.64 51.5367 35.808 51.2727 35.928C51.0087 36.048 50.7127 36.108 50.3847 36.108ZM55.392 36.084C55.232 36.084 55.112 36.04 55.032 35.952C54.952 35.864 54.912 35.74 54.912 35.58V30.576C54.912 30.416 54.952 30.296 55.032 30.216C55.112 30.128 55.228 30.084 55.38 30.084C55.532 30.084 55.648 30.128 55.728 30.216C55.816 30.296 55.86 30.416 55.86 30.576V31.608L55.728 31.464C55.896 31 56.168 30.652 56.544 30.42C56.928 30.18 57.368 30.06 57.864 30.06C58.328 30.06 58.712 30.144 59.016 30.312C59.328 30.48 59.56 30.736 59.712 31.08C59.864 31.416 59.94 31.844 59.94 32.364V35.58C59.94 35.74 59.896 35.864 59.808 35.952C59.728 36.04 59.612 36.084 59.46 36.084C59.3 36.084 59.176 36.04 59.088 35.952C59.008 35.864 58.968 35.74 58.968 35.58V32.424C58.968 31.88 58.86 31.484 58.644 31.236C58.436 30.98 58.1 30.852 57.636 30.852C57.1 30.852 56.672 31.02 56.352 31.356C56.04 31.684 55.884 32.124 55.884 32.676V35.58C55.884 35.916 55.72 36.084 55.392 36.084Z" fill="#302B6B"/>
<path d="M88.536 36.084C88.376 36.084 88.252 36.04 88.164 35.952C88.084 35.856 88.044 35.728 88.044 35.568V28.044C88.044 27.876 88.088 27.752 88.176 27.672C88.264 27.584 88.388 27.54 88.548 27.54H91.392C92.296 27.54 92.992 27.764 93.48 28.212C93.968 28.652 94.212 29.276 94.212 30.084C94.212 30.884 93.968 31.508 93.48 31.956C92.992 32.404 92.296 32.628 91.392 32.628H89.028V35.568C89.028 35.728 88.988 35.856 88.908 35.952C88.828 36.04 88.704 36.084 88.536 36.084ZM89.028 31.8H91.272C91.92 31.8 92.408 31.656 92.736 31.368C93.072 31.072 93.24 30.644 93.24 30.084C93.24 29.516 93.072 29.088 92.736 28.8C92.408 28.504 91.92 28.356 91.272 28.356H89.028V31.8ZM97.0488 36.108C96.6488 36.108 96.2888 36.032 95.9688 35.88C95.6568 35.72 95.4088 35.504 95.2248 35.232C95.0408 34.96 94.9488 34.656 94.9488 34.32C94.9488 33.888 95.0568 33.548 95.2728 33.3C95.4968 33.052 95.8608 32.876 96.3648 32.772C96.8768 32.668 97.5728 32.616 98.4528 32.616H98.9928V33.252H98.4648C97.8168 33.252 97.3048 33.284 96.9288 33.348C96.5608 33.404 96.3008 33.504 96.1488 33.648C96.0048 33.792 95.9328 33.996 95.9328 34.26C95.9328 34.588 96.0448 34.856 96.2688 35.064C96.5008 35.272 96.8128 35.376 97.2048 35.376C97.5248 35.376 97.8048 35.3 98.0448 35.148C98.2928 34.996 98.4848 34.788 98.6208 34.524C98.7648 34.26 98.8368 33.956 98.8368 33.612V32.244C98.8368 31.748 98.7368 31.392 98.5368 31.176C98.3368 30.952 98.0088 30.84 97.5528 30.84C97.2728 30.84 96.9928 30.876 96.7128 30.948C96.4328 31.02 96.1368 31.136 95.8248 31.296C95.7128 31.352 95.6168 31.372 95.5368 31.356C95.4568 31.332 95.3928 31.288 95.3448 31.224C95.2968 31.16 95.2688 31.088 95.2608 31.008C95.2528 30.92 95.2688 30.836 95.3088 30.756C95.3568 30.676 95.4288 30.612 95.5248 30.564C95.8768 30.388 96.2248 30.26 96.5688 30.18C96.9128 30.1 97.2408 30.06 97.5528 30.06C98.0568 30.06 98.4728 30.144 98.8008 30.312C99.1288 30.472 99.3728 30.72 99.5328 31.056C99.6928 31.384 99.7728 31.808 99.7728 32.328V35.58C99.7728 35.74 99.7328 35.864 99.6528 35.952C99.5808 36.04 99.4728 36.084 99.3288 36.084C99.1768 36.084 99.0608 36.04 98.9808 35.952C98.9008 35.864 98.8608 35.74 98.8608 35.58V34.644H98.9688C98.9048 34.948 98.7808 35.208 98.5968 35.424C98.4208 35.64 98.2008 35.808 97.9368 35.928C97.6728 36.048 97.3768 36.108 97.0488 36.108ZM102.813 38.244C102.693 38.244 102.597 38.212 102.525 38.148C102.453 38.084 102.409 37.996 102.393 37.884C102.385 37.78 102.405 37.672 102.453 37.56L103.281 35.7V36.12L100.977 30.768C100.929 30.648 100.913 30.536 100.929 30.432C100.945 30.328 100.993 30.244 101.073 30.18C101.153 30.116 101.265 30.084 101.409 30.084C101.537 30.084 101.637 30.112 101.709 30.168C101.781 30.224 101.845 30.324 101.901 30.468L103.869 35.292H103.545L105.537 30.468C105.601 30.324 105.669 30.224 105.741 30.168C105.813 30.112 105.917 30.084 106.053 30.084C106.181 30.084 106.277 30.116 106.341 30.18C106.413 30.244 106.453 30.328 106.461 30.432C106.477 30.528 106.461 30.636 106.413 30.756L103.341 37.86C103.277 38.004 103.205 38.104 103.125 38.16C103.053 38.216 102.949 38.244 102.813 38.244ZM108.186 36.084C108.026 36.084 107.906 36.04 107.826 35.952C107.746 35.864 107.706 35.74 107.706 35.58V30.576C107.706 30.416 107.746 30.296 107.826 30.216C107.906 30.128 108.022 30.084 108.174 30.084C108.326 30.084 108.442 30.128 108.522 30.216C108.61 30.296 108.654 30.416 108.654 30.576V31.632L108.522 31.464C108.674 31.016 108.918 30.672 109.254 30.432C109.598 30.184 110.006 30.06 110.478 30.06C110.974 30.06 111.374 30.18 111.678 30.42C111.99 30.652 112.198 31.016 112.302 31.512H112.122C112.266 31.064 112.522 30.712 112.89 30.456C113.266 30.192 113.702 30.06 114.198 30.06C114.638 30.06 114.998 30.144 115.278 30.312C115.566 30.48 115.782 30.736 115.926 31.08C116.07 31.416 116.142 31.844 116.142 32.364V35.58C116.142 35.74 116.098 35.864 116.01 35.952C115.93 36.04 115.81 36.084 115.65 36.084C115.498 36.084 115.378 36.04 115.29 35.952C115.21 35.864 115.17 35.74 115.17 35.58V32.412C115.17 31.876 115.078 31.484 114.894 31.236C114.71 30.98 114.398 30.852 113.958 30.852C113.478 30.852 113.098 31.02 112.818 31.356C112.546 31.684 112.41 32.132 112.41 32.7V35.58C112.41 35.74 112.366 35.864 112.278 35.952C112.198 36.04 112.078 36.084 111.918 36.084C111.766 36.084 111.646 36.04 111.558 35.952C111.478 35.864 111.438 35.74 111.438 35.58V32.412C111.438 31.876 111.342 31.484 111.15 31.236C110.966 30.98 110.658 30.852 110.226 30.852C109.746 30.852 109.366 31.02 109.086 31.356C108.814 31.684 108.678 32.132 108.678 32.7V35.58C108.678 35.916 108.514 36.084 108.186 36.084ZM120.587 36.108C119.971 36.108 119.439 35.988 118.991 35.748C118.551 35.5 118.207 35.152 117.959 34.704C117.719 34.256 117.599 33.72 117.599 33.096C117.599 32.488 117.719 31.96 117.959 31.512C118.199 31.056 118.527 30.7 118.943 30.444C119.367 30.188 119.855 30.06 120.407 30.06C120.799 30.06 121.151 30.128 121.463 30.264C121.775 30.392 122.039 30.58 122.255 30.828C122.479 31.076 122.647 31.376 122.759 31.728C122.879 32.08 122.939 32.476 122.939 32.916C122.939 33.044 122.903 33.14 122.831 33.204C122.759 33.26 122.655 33.288 122.519 33.288H118.343V32.652H122.291L122.099 32.808C122.099 32.376 122.035 32.012 121.907 31.716C121.779 31.412 121.591 31.18 121.343 31.02C121.103 30.86 120.799 30.78 120.431 30.78C120.023 30.78 119.675 30.876 119.387 31.068C119.107 31.252 118.895 31.512 118.751 31.848C118.607 32.176 118.535 32.56 118.535 33V33.072C118.535 33.808 118.711 34.368 119.063 34.752C119.423 35.136 119.931 35.328 120.587 35.328C120.859 35.328 121.127 35.292 121.391 35.22C121.663 35.148 121.927 35.028 122.183 34.86C122.295 34.788 122.395 34.756 122.483 34.764C122.579 34.764 122.655 34.792 122.711 34.848C122.767 34.896 122.803 34.96 122.819 35.04C122.843 35.112 122.835 35.192 122.795 35.28C122.763 35.368 122.695 35.444 122.591 35.508C122.327 35.7 122.015 35.848 121.655 35.952C121.295 36.056 120.939 36.108 120.587 36.108ZM124.826 36.084C124.666 36.084 124.546 36.04 124.466 35.952C124.386 35.864 124.346 35.74 124.346 35.58V30.576C124.346 30.416 124.386 30.296 124.466 30.216C124.546 30.128 124.662 30.084 124.814 30.084C124.966 30.084 125.082 30.128 125.162 30.216C125.25 30.296 125.294 30.416 125.294 30.576V31.608L125.162 31.464C125.33 31 125.602 30.652 125.978 30.42C126.362 30.18 126.802 30.06 127.298 30.06C127.762 30.06 128.146 30.144 128.45 30.312C128.762 30.48 128.994 30.736 129.146 31.08C129.298 31.416 129.374 31.844 129.374 32.364V35.58C129.374 35.74 129.33 35.864 129.242 35.952C129.162 36.04 129.046 36.084 128.894 36.084C128.734 36.084 128.61 36.04 128.522 35.952C128.442 35.864 128.402 35.74 128.402 35.58V32.424C128.402 31.88 128.294 31.484 128.078 31.236C127.87 30.98 127.534 30.852 127.07 30.852C126.534 30.852 126.106 31.02 125.786 31.356C125.474 31.684 125.318 32.124 125.318 32.676V35.58C125.318 35.916 125.154 36.084 124.826 36.084ZM133.506 36.108C133.05 36.108 132.666 36.028 132.354 35.868C132.05 35.7 131.822 35.46 131.67 35.148C131.518 34.828 131.442 34.44 131.442 33.984V30.924H130.638C130.502 30.924 130.398 30.892 130.326 30.828C130.254 30.756 130.218 30.66 130.218 30.54C130.218 30.42 130.254 30.328 130.326 30.264C130.398 30.2 130.502 30.168 130.638 30.168H131.442V28.788C131.442 28.628 131.486 28.508 131.574 28.428C131.662 28.34 131.782 28.296 131.934 28.296C132.086 28.296 132.202 28.34 132.282 28.428C132.37 28.508 132.414 28.628 132.414 28.788V30.168H133.926C134.062 30.168 134.166 30.2 134.238 30.264C134.31 30.328 134.346 30.42 134.346 30.54C134.346 30.66 134.31 30.756 134.238 30.828C134.166 30.892 134.062 30.924 133.926 30.924H132.414V33.888C132.414 34.344 132.51 34.692 132.702 34.932C132.894 35.164 133.206 35.28 133.638 35.28C133.79 35.28 133.918 35.264 134.022 35.232C134.134 35.2 134.226 35.184 134.298 35.184C134.37 35.176 134.43 35.2 134.478 35.256C134.526 35.312 134.55 35.408 134.55 35.544C134.55 35.64 134.53 35.728 134.49 35.808C134.458 35.888 134.398 35.944 134.31 35.976C134.214 36.008 134.086 36.036 133.926 36.06C133.774 36.092 133.634 36.108 133.506 36.108Z" fill="#302B6B"/>
<path d="M173.536 36.084C173.376 36.084 173.252 36.04 173.164 35.952C173.084 35.856 173.044 35.728 173.044 35.568V28.044C173.044 27.876 173.088 27.752 173.176 27.672C173.264 27.584 173.388 27.54 173.548 27.54H176.392C177.296 27.54 177.992 27.752 178.48 28.176C178.968 28.6 179.212 29.204 179.212 29.988C179.212 30.484 179.1 30.916 178.876 31.284C178.66 31.644 178.34 31.92 177.916 32.112C177.492 32.296 176.984 32.388 176.392 32.388L176.512 32.232H176.752C177.064 32.232 177.336 32.312 177.568 32.472C177.8 32.632 178.012 32.888 178.204 33.24L179.356 35.388C179.42 35.5 179.448 35.612 179.44 35.724C179.44 35.828 179.404 35.916 179.332 35.988C179.26 36.052 179.156 36.084 179.02 36.084C178.884 36.084 178.772 36.052 178.684 35.988C178.596 35.924 178.52 35.832 178.456 35.712L177.148 33.288C176.964 32.944 176.752 32.716 176.512 32.604C176.272 32.484 175.956 32.424 175.564 32.424H174.028V35.568C174.028 35.728 173.988 35.856 173.908 35.952C173.828 36.04 173.704 36.084 173.536 36.084ZM174.028 31.644H176.248C176.904 31.644 177.4 31.508 177.736 31.236C178.072 30.956 178.24 30.54 178.24 29.988C178.24 29.452 178.072 29.048 177.736 28.776C177.4 28.496 176.904 28.356 176.248 28.356H174.028V31.644ZM183.438 36.108C182.822 36.108 182.29 35.988 181.842 35.748C181.402 35.5 181.058 35.152 180.81 34.704C180.57 34.256 180.45 33.72 180.45 33.096C180.45 32.488 180.57 31.96 180.81 31.512C181.05 31.056 181.378 30.7 181.794 30.444C182.218 30.188 182.706 30.06 183.258 30.06C183.65 30.06 184.002 30.128 184.314 30.264C184.626 30.392 184.89 30.58 185.106 30.828C185.33 31.076 185.498 31.376 185.61 31.728C185.73 32.08 185.79 32.476 185.79 32.916C185.79 33.044 185.754 33.14 185.682 33.204C185.61 33.26 185.506 33.288 185.37 33.288H181.194V32.652H185.142L184.95 32.808C184.95 32.376 184.886 32.012 184.758 31.716C184.63 31.412 184.442 31.18 184.194 31.02C183.954 30.86 183.65 30.78 183.282 30.78C182.874 30.78 182.526 30.876 182.238 31.068C181.958 31.252 181.746 31.512 181.602 31.848C181.458 32.176 181.386 32.56 181.386 33V33.072C181.386 33.808 181.562 34.368 181.914 34.752C182.274 35.136 182.782 35.328 183.438 35.328C183.71 35.328 183.978 35.292 184.242 35.22C184.514 35.148 184.778 35.028 185.034 34.86C185.146 34.788 185.246 34.756 185.334 34.764C185.43 34.764 185.506 34.792 185.562 34.848C185.618 34.896 185.654 34.96 185.67 35.04C185.694 35.112 185.686 35.192 185.646 35.28C185.614 35.368 185.546 35.444 185.442 35.508C185.178 35.7 184.866 35.848 184.506 35.952C184.146 36.056 183.79 36.108 183.438 36.108ZM189.669 36.108C189.085 36.108 188.581 35.98 188.157 35.724C187.733 35.468 187.405 35.112 187.173 34.656C186.949 34.192 186.837 33.656 186.837 33.048C186.837 32.584 186.901 32.168 187.029 31.8C187.157 31.432 187.345 31.12 187.593 30.864C187.841 30.6 188.137 30.4 188.481 30.264C188.833 30.128 189.229 30.06 189.669 30.06C189.957 30.06 190.257 30.104 190.569 30.192C190.881 30.28 191.165 30.432 191.421 30.648C191.501 30.704 191.553 30.772 191.577 30.852C191.601 30.932 191.601 31.012 191.577 31.092C191.553 31.164 191.513 31.228 191.457 31.284C191.401 31.332 191.329 31.36 191.241 31.368C191.161 31.376 191.077 31.348 190.989 31.284C190.781 31.124 190.569 31.012 190.353 30.948C190.137 30.884 189.929 30.852 189.729 30.852C189.417 30.852 189.145 30.904 188.913 31.008C188.681 31.104 188.485 31.244 188.325 31.428C188.165 31.612 188.041 31.84 187.953 32.112C187.873 32.384 187.833 32.7 187.833 33.06C187.833 33.756 187.997 34.308 188.325 34.716C188.653 35.116 189.121 35.316 189.729 35.316C189.929 35.316 190.133 35.284 190.341 35.22C190.557 35.156 190.773 35.044 190.989 34.884C191.077 34.82 191.161 34.792 191.241 34.8C191.321 34.808 191.389 34.84 191.445 34.896C191.501 34.944 191.537 35.008 191.553 35.088C191.577 35.168 191.577 35.248 191.553 35.328C191.529 35.4 191.477 35.464 191.397 35.52C191.141 35.728 190.861 35.88 190.557 35.976C190.253 36.064 189.957 36.108 189.669 36.108ZM195.263 36.108C194.647 36.108 194.115 35.988 193.667 35.748C193.227 35.5 192.883 35.152 192.635 34.704C192.395 34.256 192.275 33.72 192.275 33.096C192.275 32.488 192.395 31.96 192.635 31.512C192.875 31.056 193.203 30.7 193.619 30.444C194.043 30.188 194.531 30.06 195.083 30.06C195.475 30.06 195.827 30.128 196.139 30.264C196.451 30.392 196.715 30.58 196.931 30.828C197.155 31.076 197.323 31.376 197.435 31.728C197.555 32.08 197.615 32.476 197.615 32.916C197.615 33.044 197.579 33.14 197.507 33.204C197.435 33.26 197.331 33.288 197.195 33.288H193.019V32.652H196.967L196.775 32.808C196.775 32.376 196.711 32.012 196.583 31.716C196.455 31.412 196.267 31.18 196.019 31.02C195.779 30.86 195.475 30.78 195.107 30.78C194.699 30.78 194.351 30.876 194.063 31.068C193.783 31.252 193.571 31.512 193.427 31.848C193.283 32.176 193.211 32.56 193.211 33V33.072C193.211 33.808 193.387 34.368 193.739 34.752C194.099 35.136 194.607 35.328 195.263 35.328C195.535 35.328 195.803 35.292 196.067 35.22C196.339 35.148 196.603 35.028 196.859 34.86C196.971 34.788 197.071 34.756 197.159 34.764C197.255 34.764 197.331 34.792 197.387 34.848C197.443 34.896 197.479 34.96 197.495 35.04C197.519 35.112 197.511 35.192 197.471 35.28C197.439 35.368 197.371 35.444 197.267 35.508C197.003 35.7 196.691 35.848 196.331 35.952C195.971 36.056 195.615 36.108 195.263 36.108ZM199.501 36.06C199.341 36.06 199.221 36.016 199.141 35.928C199.061 35.832 199.021 35.7 199.021 35.532V30.624C199.021 30.456 199.061 30.328 199.141 30.24C199.221 30.152 199.341 30.108 199.501 30.108C199.653 30.108 199.773 30.152 199.861 30.24C199.949 30.328 199.993 30.456 199.993 30.624V35.532C199.993 35.7 199.949 35.832 199.861 35.928C199.781 36.016 199.661 36.06 199.501 36.06ZM199.501 28.764C199.301 28.764 199.145 28.712 199.033 28.608C198.921 28.496 198.865 28.348 198.865 28.164C198.865 27.972 198.921 27.828 199.033 27.732C199.145 27.628 199.301 27.576 199.501 27.576C199.709 27.576 199.865 27.628 199.969 27.732C200.081 27.828 200.137 27.972 200.137 28.164C200.137 28.348 200.081 28.496 199.969 28.608C199.865 28.712 199.709 28.764 199.501 28.764ZM202.29 38.244C202.13 38.244 202.01 38.2 201.93 38.112C201.85 38.032 201.81 37.912 201.81 37.752V30.576C201.81 30.416 201.85 30.296 201.93 30.216C202.01 30.128 202.126 30.084 202.278 30.084C202.438 30.084 202.558 30.128 202.638 30.216C202.726 30.296 202.77 30.416 202.77 30.576V31.716L202.638 31.548C202.766 31.092 203.018 30.732 203.394 30.468C203.778 30.196 204.234 30.06 204.762 30.06C205.282 30.06 205.734 30.184 206.118 30.432C206.51 30.672 206.81 31.02 207.018 31.476C207.234 31.924 207.342 32.46 207.342 33.084C207.342 33.7 207.234 34.236 207.018 34.692C206.81 35.14 206.514 35.488 206.13 35.736C205.746 35.984 205.29 36.108 204.762 36.108C204.234 36.108 203.782 35.976 203.406 35.712C203.03 35.44 202.774 35.08 202.638 34.632H202.782V37.752C202.782 37.912 202.738 38.032 202.65 38.112C202.562 38.2 202.442 38.244 202.29 38.244ZM204.558 35.328C204.926 35.328 205.242 35.24 205.506 35.064C205.778 34.888 205.986 34.632 206.13 34.296C206.282 33.96 206.358 33.556 206.358 33.084C206.358 32.356 206.194 31.8 205.866 31.416C205.546 31.032 205.11 30.84 204.558 30.84C204.198 30.84 203.882 30.928 203.61 31.104C203.338 31.272 203.126 31.524 202.974 31.86C202.83 32.188 202.758 32.596 202.758 33.084C202.758 33.804 202.922 34.36 203.25 34.752C203.578 35.136 204.014 35.328 204.558 35.328ZM211.088 36.108C210.632 36.108 210.248 36.028 209.936 35.868C209.632 35.7 209.404 35.46 209.252 35.148C209.1 34.828 209.024 34.44 209.024 33.984V30.924H208.22C208.084 30.924 207.98 30.892 207.908 30.828C207.836 30.756 207.8 30.66 207.8 30.54C207.8 30.42 207.836 30.328 207.908 30.264C207.98 30.2 208.084 30.168 208.22 30.168H209.024V28.788C209.024 28.628 209.068 28.508 209.156 28.428C209.244 28.34 209.364 28.296 209.516 28.296C209.668 28.296 209.784 28.34 209.864 28.428C209.952 28.508 209.996 28.628 209.996 28.788V30.168H211.508C211.644 30.168 211.748 30.2 211.82 30.264C211.892 30.328 211.928 30.42 211.928 30.54C211.928 30.66 211.892 30.756 211.82 30.828C211.748 30.892 211.644 30.924 211.508 30.924H209.996V33.888C209.996 34.344 210.092 34.692 210.284 34.932C210.476 35.164 210.788 35.28 211.22 35.28C211.372 35.28 211.5 35.264 211.604 35.232C211.716 35.2 211.808 35.184 211.88 35.184C211.952 35.176 212.012 35.2 212.06 35.256C212.108 35.312 212.132 35.408 212.132 35.544C212.132 35.64 212.112 35.728 212.072 35.808C212.04 35.888 211.98 35.944 211.892 35.976C211.796 36.008 211.668 36.036 211.508 36.06C211.356 36.092 211.216 36.108 211.088 36.108Z" fill="#302B6B"/>
<circle cx="32" cy="10" r="10" fill="#1CBB86"/>
<path d="M28.1108 10.5553L30.3331 12.7775L35.8886 7.22194" stroke="white" stroke-width="2" stroke-linecap="round" stroke-linejoin="round"/>
<rect x="47" y="10.4528" width="48" height="1.74528" fill="#1CBB86"/>
<circle cx="192.526" cy="10" r="9" stroke="#1CBB86" stroke-opacity="0.33" stroke-width="2"/>
<rect x="128" y="10.4528" width="48" height="1.74528" fill="#1CBB86" fill-opacity="0.33"/>
<circle cx="112" cy="10" r="9" stroke="#1CBB86" stroke-width="2"/>
<circle cx="112" cy="10" r="3.39623" fill="#1CBB86"/>
</svg>
